# xmcd
#
# Track frame offsets:
#	150
#	12383
#	23323
#	34853
#	44516
#	56322
#	67311
#	76897
#	87639
#	99574
#	111454
#	122024
#	133199
#	143626
#	156372
#	165263
#	177226
#	189001
#	200206
#	210564
#	222444
#	237516
#	249120
#	260495
#	271131
#	281687
#	293503
#
# Disc length: 4080 seconds
#
# Revision: 0
# Processed by: cddbd v1.4PL0 Copyright (c) Steve Scherf et al.
# Submitted via: EasyCDDAExtractor 4.6.9.1
#
DISCID=880fee1b
DTITLE=Kitty Wells - Queen Of Country Music - Disc 3
DYEAR=1993
DGENRE=Country
TTITLE0=Oh! So Many Years
TTITLE1=One Week Later
TTITLE2=When I'm With You
TTITLE3=Can You Find It In Your Heart
TTITLE4=Repenting
TTITLE5=I Guess I'll Go On Dreaming
TTITLE6=Each Day
TTITLE7=The Pace That Kills
TTITLE8=A Change Of Heart
TTITLE9=Stubborn Heart
TTITLE10=Standing Room Only
TTITLE11=A Mansion On The Hill
TTITLE12=Your Wild Life's Gonna Get You Down
TTITLE13=Right Or Wrong
TTITLE14=The Winner Of Your Heart
TTITLE15=Dancing With A Stranger
TTITLE16=Three Ways (To Love You)
TTITLE17=She's No Angel
TTITLE18=Broken Marriage Vows
TTITLE19=What About You
TTITLE20=Sweeter Than The Flowers
TTITLE21=You Can't Conceal A Broken Heart
TTITLE22=Just When I Needed You
TTITLE23=Lonely Street
TTITLE24=That's Me Without You
TTITLE25=Cheated Out Of Love
TTITLE26=The Waltz Of The Angels
EXTD=
EXTT0=
EXTT1=
EXTT2=
EXTT3=
EXTT4=
EXTT5=
EXTT6=
EXTT7=
EXTT8=
EXTT9=
EXTT10=
EXTT11=
EXTT12=
EXTT13=
EXTT14=
EXTT15=
EXTT16=
EXTT17=
EXTT18=
EXTT19=
EXTT20=
EXTT21=
EXTT22=
EXTT23=
EXTT24=
EXTT25=
EXTT26=
PLAYORDER=
